# xmcd
#
# Track frame offsets: 
#        150
#        21844
#        38241
#        55859
#        72444
#        80441
#        94502
#        105641
#        114808
#        122680
#        142502
#        147866
#        163476
#        173303
#        189189
#        201115
#        210709
#        222244
#
# Disc length: 3207 seconds
#
# Revision: 0
# Processed by: cddbd v1.5.2PL0 Copyright (c) Steve Scherf et al.
# Submitted via: ExactAudioCopy v0.99pb4
#
DISCID=ef0c8512
DTITLE=Андрей Никольский - Волчица
DYEAR=2007
DGENRE=Vocal
TTITLE0=01. Желтые ненастья
TTITLE1=02. Волчица
TTITLE2=03. Ах, как жаль
TTITLE3=04. Неразгаданная ложь
TTITLE4=05. Осечка
TTITLE5=06. За широкою рекой
TTITLE6=07. Жизнь летела...
TTITLE7=08. Был лик тих
TTITLE8=09. Твердый луч
TTITLE9=10. В ресторане
TTITLE10=11. Как в такую погоду не пить
TTITLE11=12. Не ко двору
TTITLE12=13. За леском, за бором
TTITLE13=14. Незамужняя страна
TTITLE14=15. Никольские морозы
TTITLE15=16. Площадь
TTITLE16=17. Метель
TTITLE17=18. Я одну тебя люблю
EXTD=
EXTT0=
EXTT1=
EXTT2=
EXTT3=
EXTT4=
EXTT5=
EXTT6=
EXTT7=
EXTT8=
EXTT9=
EXTT10=
EXTT11=
EXTT12=
EXTT13=
EXTT14=
EXTT15=
EXTT16=
EXTT17=
PLAYORDER=
